<mxfile host="app.diagrams.net" modified="2022-12-01T05:37:04.458Z" agent="5.0 (Windows NT 10.0; Win64; x64) AppleWebKit/537.36 (KHTML, like Gecko) Chrome/72.0.3626.119 Safari/537.36" etag="eYfDrBch67NSDxudny5v" version="20.5.1" type="github">
  <diagram id="5Tx3TCXnyt9OSKzZZrrE" name="第 1 页">
    <mxGraphModel dx="1422" dy="762" grid="0" gridSize="10" guides="1" tooltips="1" connect="1" arrows="1" fold="1" page="1" pageScale="1" pageWidth="827" pageHeight="1169" math="0" shadow="0">
      <root>
        <mxCell id="0" />
        <mxCell id="1" parent="0" />
        <mxCell id="flxkLxOHi36lx1edua9F-4" style="edgeStyle=orthogonalEdgeStyle;rounded=0;orthogonalLoop=1;jettySize=auto;html=1;fontSize=25;fontColor=#CC0066;dashed=1;strokeColor=#9E9E9E;strokeWidth=2;" parent="1" source="flxkLxOHi36lx1edua9F-1" target="flxkLxOHi36lx1edua9F-2" edge="1">
          <mxGeometry relative="1" as="geometry">
            <Array as="points">
              <mxPoint x="360" y="200" />
              <mxPoint x="360" y="200" />
            </Array>
          </mxGeometry>
        </mxCell>
        <mxCell id="flxkLxOHi36lx1edua9F-5" value="1.恶意发送非法请求" style="edgeLabel;html=1;align=center;verticalAlign=middle;resizable=0;points=[];fontSize=13;fontColor=#8F8F8F;" parent="flxkLxOHi36lx1edua9F-4" vertex="1" connectable="0">
          <mxGeometry x="-0.2735" relative="1" as="geometry">
            <mxPoint x="47" y="-10" as="offset" />
          </mxGeometry>
        </mxCell>
        <mxCell id="flxkLxOHi36lx1edua9F-1" value="Browser" style="shape=umlLifeline;perimeter=lifelinePerimeter;whiteSpace=wrap;html=1;container=1;collapsible=0;recursiveResize=0;outlineConnect=0;fillColor=#28A0FC;strokeColor=#6c8ebf;fontColor=#FFFFFF;strokeWidth=2;" parent="1" vertex="1">
          <mxGeometry x="140" y="110" width="100" height="308" as="geometry" />
        </mxCell>
        <mxCell id="flxkLxOHi36lx1edua9F-10" style="edgeStyle=orthogonalEdgeStyle;curved=1;rounded=0;orthogonalLoop=1;jettySize=auto;html=1;dashed=1;strokeColor=#9E9E9E;fontSize=13;fontColor=#8F8F8F;strokeWidth=2;" parent="1" source="flxkLxOHi36lx1edua9F-2" target="flxkLxOHi36lx1edua9F-1" edge="1">
          <mxGeometry relative="1" as="geometry">
            <Array as="points">
              <mxPoint x="390" y="290" />
              <mxPoint x="390" y="290" />
            </Array>
          </mxGeometry>
        </mxCell>
        <mxCell id="flxkLxOHi36lx1edua9F-11" value="3.返回非法请求" style="edgeLabel;html=1;align=center;verticalAlign=middle;resizable=0;points=[];fontSize=13;fontColor=#8F8F8F;" parent="flxkLxOHi36lx1edua9F-10" vertex="1" connectable="0">
          <mxGeometry x="-0.1382" relative="1" as="geometry">
            <mxPoint x="-22" y="-11" as="offset" />
          </mxGeometry>
        </mxCell>
        <mxCell id="flxkLxOHi36lx1edua9F-2" value="Server" style="shape=umlLifeline;perimeter=lifelinePerimeter;whiteSpace=wrap;html=1;container=1;collapsible=0;recursiveResize=0;outlineConnect=0;fillColor=#CC0066;strokeColor=#6c8ebf;fontColor=#FFFFFF;strokeWidth=2;" parent="1" vertex="1">
          <mxGeometry x="480" y="110" width="100" height="306" as="geometry" />
        </mxCell>
        <mxCell id="flxkLxOHi36lx1edua9F-8" value="X" style="html=1;points=[];perimeter=orthogonalPerimeter;fontSize=13;fontColor=#FF0000;fillColor=#FFFFFF;strokeColor=#8F8F8F;" parent="flxkLxOHi36lx1edua9F-2" vertex="1">
          <mxGeometry x="45" y="149" width="10" height="40" as="geometry" />
        </mxCell>
        <mxCell id="flxkLxOHi36lx1edua9F-9" value="2.将客户端IP加入黑名单，并限制服务访问" style="edgeStyle=orthogonalEdgeStyle;html=1;align=left;spacingLeft=2;endArrow=block;rounded=0;entryX=1;entryY=0;dashed=1;strokeColor=#9E9E9E;fontSize=13;fontColor=#8F8F8F;curved=1;" parent="flxkLxOHi36lx1edua9F-2" edge="1">
          <mxGeometry relative="1" as="geometry">
            <mxPoint x="50" y="90" as="sourcePoint" />
            <Array as="points">
              <mxPoint x="80" y="90" />
              <mxPoint x="80" y="150" />
            </Array>
            <mxPoint x="55" y="150" as="targetPoint" />
          </mxGeometry>
        </mxCell>
        <mxCell id="flxkLxOHi36lx1edua9F-3" value="黑名单拦截" style="text;html=1;strokeColor=none;fillColor=none;align=center;verticalAlign=middle;whiteSpace=wrap;rounded=0;fontColor=#CC0066;fontSize=25;fontStyle=1" parent="1" vertex="1">
          <mxGeometry x="190" y="40" width="360" height="30" as="geometry" />
        </mxCell>
      </root>
    </mxGraphModel>
  </diagram>
</mxfile>
